<?xml version="1.0" encoding="UTF-8"?>
<!-- Generator: Adobe Illustrator 27.0.0, SVG Export Plug-In . SVG Version: 6.00 Build 0)  -->
<svg xmlns="http://www.w3.org/2000/svg" xmlns:xlink="http://www.w3.org/1999/xlink" version="1.1" x="0px" y="0px" viewBox="0 0 550.5 179.97" style="enable-background:new 0 0 550.5 179.97;" xml:space="preserve">
<style type="text/css">
	.st0{fill:#ffffff;}
	.st1{fill:#00b279;}
	.st2{display:none;}
	.st3{display:inline;opacity:0.1;fill:#00b279;}
</style>
<g id="Bindinc_Logo_RGB" style="color: white">
	<path class="st0" d="M129.07,101.99c0-4.63-1.31-8.22-3.94-10.78c-2.63-2.57-6.33-4.06-11.12-4.51v-0.56   c4.41-0.13,7.72-1.18,9.92-3.14c2.2-1.97,3.3-4.69,3.3-8.16v-0.51c0-4.78-1.76-8.36-5.3-10.74c-3.53-2.37-9.44-3.57-17.73-3.57   H80.38H76.4H64.49v59.94H76.4h3.99h25.19c8.1,0,14.04-1.49,17.82-4.48c3.78-2.99,5.67-7.26,5.67-12.83V101.99z M80.38,72.02h22.65   c2.72,0,4.68,0.49,5.89,1.48c1.2,0.99,1.8,2.39,1.8,4.2v0.42c0,1.75-0.6,3.12-1.8,4.1c-1.21,0.99-3.17,1.48-5.89,1.48H80.38V72.02z    M112.09,101.38c0,1.97-0.66,3.48-1.97,4.53c-1.31,1.05-3.36,1.57-6.14,1.57H80.38V94.86h23.54c2.81,0,4.88,0.52,6.19,1.55   c1.31,1.03,1.97,2.55,1.97,4.55V101.38z"/>
	<rect x="141.07" y="74.88" class="st0" width="16.04" height="45.07"/>
	<path class="st0" d="M209.68,92.1c0.59,1.66,0.89,3.45,0.89,5.39v22.46h16.09V93.69c0-4.35-0.72-8.04-2.16-11.07   c-1.44-3.03-3.62-5.34-6.54-6.92c-2.92-1.58-6.62-2.37-11.09-2.37c-3.94,0-7.25,0.59-9.94,1.78c-2.69,1.19-4.82,2.79-6.38,4.78   c-1.56,2-2.64,4.21-3.24,6.61h-0.49l0.49-11.63h-16.04v45.07h16.04V93.7c0.58-1.15,1.29-2.24,2.2-3.2   c1.12-1.19,2.54-2.14,4.24-2.86c1.7-0.72,3.74-1.08,6.12-1.08c2.85,0,5.04,0.51,6.59,1.53C208.02,89.1,209.09,90.44,209.68,92.1"/>
	<path class="st0" d="M278.04,114.91c1.61-1.99,2.68-4.2,3.21-6.64h0.54l-0.49,11.68h16.09V58.23h-15.95v16.7l0.17,11.58h-0.5   c-0.63-2.75-1.75-5.11-3.38-7.08c-1.63-1.97-3.77-3.48-6.45-4.53c-2.67-1.05-5.98-1.57-9.92-1.57c-7.25,0-12.98,1.99-17.17,5.98   c-4.19,3.99-6.28,9.87-6.28,17.66v0.89c0,7.76,2.06,13.62,6.19,17.59c4.13,3.97,9.77,5.96,16.93,5.96c4.13,0,7.59-0.59,10.39-1.76   C274.22,118.48,276.43,116.9,278.04,114.91 M257.54,105.58c-2.24-1.8-3.35-4.43-3.35-7.9v-0.94c0-3.5,1.16-6.16,3.47-7.97   c2.31-1.81,5.5-2.72,9.57-2.72c3.03,0,5.6,0.43,7.69,1.29c2.09,0.86,3.7,2.11,4.83,3.75c1.13,1.64,1.75,3.64,1.88,5.98v3.57   c-0.68,1.3-1.59,2.49-2.79,3.57c-1.42,1.28-3.13,2.28-5.14,3c-2,0.72-4.22,1.08-6.66,1.08   C262.94,108.28,259.78,107.38,257.54,105.58"/>
	<rect x="311.5" y="74.88" class="st0" width="16.04" height="45.07"/>
	<path class="st0" d="M381,97.49v22.46h16.09V93.69c0-4.35-0.72-8.03-2.16-11.07c-1.44-3.04-3.62-5.34-6.54-6.92   c-2.92-1.58-6.62-2.37-11.09-2.37c-3.94,0-7.25,0.6-9.94,1.78c-2.69,1.19-4.81,2.79-6.38,4.78c-1.56,2-2.64,4.21-3.24,6.61h-0.49   l0.49-11.63H341.7v45.07h16.04V93.7c0.58-1.15,1.29-2.23,2.2-3.2c1.12-1.19,2.54-2.14,4.24-2.86c1.71-0.72,3.74-1.08,6.12-1.08   c2.85,0,5.04,0.51,6.59,1.52c1.55,1.02,2.62,2.35,3.21,4.01C380.71,93.75,381,95.55,381,97.49"/>
	<path class="st0" d="M440.28,108.7c-5.31,0-9.28-0.98-11.89-2.96c-2.61-1.97-3.91-4.77-3.91-8.39v-0.66c0-3.53,1.23-6.24,3.68-8.14   c2.45-1.89,6.32-2.84,11.61-2.84c3.69,0,7.02,0.4,9.99,1.22c2.97,0.82,5.63,1.8,7.97,2.96l-1.55-12.85   c-1.44-0.75-3.14-1.44-5.11-2.07c-1.97-0.63-4.13-1.12-6.47-1.48c-2.34-0.36-4.85-0.54-7.5-0.54c-9.66,0-16.89,2.09-21.69,6.26   c-4.8,4.17-7.2,10-7.2,17.47v0.7c0,7.72,2.41,13.7,7.22,17.94c4.82,4.24,12.1,6.36,21.86,6.36c4,0,7.67-0.41,11.02-1.22   c3.34-0.81,6.17-1.81,8.49-3l1.4-12.81c-2.66,1.19-5.41,2.16-8.25,2.91C447.1,108.32,443.88,108.7,440.28,108.7"/>
	<circle class="st0" cx="149.06" cy="60.4" r="8.66"/>
	<circle class="st0" cx="319.54" cy="60.4" r="8.66"/>
	<circle class="st1" cx="477.25" cy="112.78" r="8.66"/>
</g>
<g id="Minium_border" class="st2">
	<path class="st3" d="M64.58,101.99c0-4.63-1.31-8.22-3.94-10.78c-2.63-2.57-6.33-4.06-11.12-4.51v-0.56   c4.41-0.13,7.72-1.18,9.92-3.14c2.2-1.97,3.3-4.69,3.3-8.16v-0.51c0-4.78-1.76-8.36-5.3-10.74c-3.53-2.37-9.44-3.57-17.73-3.57   H15.9h-3.99H0v59.94h11.91h3.99h25.19c8.1,0,14.04-1.49,17.82-4.48c3.78-2.99,5.67-7.26,5.67-12.83V101.99z M15.9,72.02h22.65   c2.72,0,4.68,0.49,5.89,1.48c1.2,0.99,1.8,2.39,1.8,4.2v0.42c0,1.75-0.6,3.12-1.8,4.1c-1.21,0.99-3.17,1.48-5.89,1.48H15.9V72.02z    M47.6,101.38c0,1.97-0.66,3.48-1.97,4.53c-1.31,1.05-3.36,1.57-6.14,1.57H15.9V94.86h23.54c2.81,0,4.88,0.52,6.19,1.55   c1.31,1.03,1.97,2.55,1.97,4.55V101.38z"/>
	<path class="st3" d="M129.07,42.05c0-4.63-1.31-8.22-3.94-10.78c-2.63-2.57-6.33-4.06-11.12-4.51V26.2   c4.41-0.13,7.72-1.18,9.92-3.14c2.2-1.97,3.3-4.69,3.3-8.16v-0.51c0-4.78-1.76-8.36-5.3-10.74c-3.53-2.37-9.44-3.57-17.73-3.57   H80.38H76.4H64.49v59.94H76.4h3.99h25.19c8.1,0,14.04-1.49,17.82-4.48c3.78-2.99,5.67-7.26,5.67-12.83V42.05z M80.38,12.08h22.65   c2.72,0,4.68,0.49,5.89,1.48c1.2,0.99,1.8,2.39,1.8,4.2v0.42c0,1.75-0.6,3.12-1.8,4.1c-1.21,0.99-3.17,1.48-5.89,1.48H80.38V12.08z    M112.09,41.44c0,1.97-0.66,3.48-1.97,4.53c-1.31,1.05-3.36,1.57-6.14,1.57H80.38V34.92h23.54c2.81,0,4.88,0.52,6.19,1.55   c1.31,1.03,1.97,2.55,1.97,4.55V41.44z"/>
	<path class="st3" d="M129.07,162.01c0-4.63-1.31-8.22-3.94-10.78c-2.63-2.57-6.33-4.06-11.12-4.51v-0.56   c4.41-0.13,7.72-1.18,9.92-3.14c2.2-1.97,3.3-4.69,3.3-8.16v-0.51c0-4.78-1.76-8.36-5.3-10.74c-3.53-2.37-9.44-3.57-17.73-3.57   H80.38H76.4H64.49v59.94H76.4h3.99h25.19c8.1,0,14.04-1.49,17.82-4.48c3.78-2.99,5.67-7.26,5.67-12.83V162.01z M80.38,132.04h22.65   c2.72,0,4.68,0.49,5.89,1.48c1.2,0.99,1.8,2.39,1.8,4.2v0.42c0,1.75-0.6,3.12-1.8,4.1c-1.21,0.99-3.17,1.48-5.89,1.48H80.38V132.04   z M112.09,161.4c0,1.97-0.66,3.48-1.97,4.53c-1.31,1.05-3.36,1.57-6.14,1.57H80.38v-12.62h23.54c2.81,0,4.88,0.52,6.19,1.55   c1.31,1.03,1.97,2.55,1.97,4.55V161.4z"/>
	<path class="st3" d="M550.5,101.99c0-4.63-1.31-8.22-3.94-10.78c-2.63-2.57-6.33-4.06-11.12-4.51v-0.56   c4.41-0.13,7.72-1.18,9.92-3.14c2.2-1.97,3.3-4.69,3.3-8.16v-0.51c0-4.78-1.76-8.36-5.3-10.74c-3.53-2.37-9.44-3.57-17.73-3.57   h-23.83h-3.99h-11.91v59.94h11.91h3.99H527c8.1,0,14.04-1.49,17.82-4.48c3.78-2.99,5.67-7.26,5.67-12.83V101.99z M501.82,72.02   h22.65c2.72,0,4.68,0.49,5.89,1.48c1.2,0.99,1.8,2.39,1.8,4.2v0.42c0,1.75-0.6,3.12-1.8,4.1c-1.21,0.99-3.17,1.48-5.89,1.48h-22.65   V72.02z M533.52,101.38c0,1.97-0.66,3.48-1.97,4.53c-1.31,1.05-3.36,1.57-6.14,1.57h-23.59V94.86h23.54c2.81,0,4.88,0.52,6.19,1.55   c1.31,1.03,1.97,2.55,1.97,4.55V101.38z"/>
</g>
</svg>